:SAMPLES-PER-SECOND 30
:FULLY-SPECIFIED
:DEGREES
92
root  -14.738 38.868 -21.5528 1.77376 -45.0635 -6.88129
RightUpLeg  -19.9561 -4.94351 -2.18795
RightLeg  -2.86947 -6.67074 5.69118
RightFoot  -0.445576 -0.955611 9.97149
RightToes  -1.74624e-010 0 -3.6325e-017
Spine  5.49607 -0.599322 4.50923
Spine1  10.5909 -1.31909 2.93415
HEad  -13.1121 3.46451 -3.45216
LeftShoulder1  9.33715 -13.0325 -49.2956
LeftArm  -0.388943 0.113343 -31.0462
LeftForeArm  34.3757 -41.0187 -7.50844
LeftHand  -0.244104 0.0205437 5.32207
RightShoulder  6.62375 10.0971 42.4057
RightArm  -1.84875 -16.5827 26.9982
RightForeArm  6.37036 7.14893 8.23495
RightHand  -0.944708 1.29498 -16.4946
LeftUpLeg  14.7831 3.77282 -4.07965
LeftLeg  13.5771 -5.19333 -2.03548
LeftFoot  -20.5258 1.2523 13.9662
LeftToes  -2.54691e-011 4.12133e-011 -4.68171e-012
93
root  -16.1421 38.6252 -20.6206 1.9272 -43.9547 -7.14481
RightUpLeg  -21.5832 -4.69212 -0.593129
RightLeg  3.57995 -7.45913 4.38689
RightFoot  1.88047 -0.818052 7.24009
RightToes  -1.74624e-010 0 -3.6325e-017
Spine  5.07721 -0.850775 5.1349
Spine1  10.9074 -1.68476 3.12115
HEad  -12.9197 3.29515 -3.49749
LeftShoulder1  9.35061 -13.0386 -49.3485
LeftArm  -0.42178 0.267489 -30.49
LeftForeArm  33.5742 -39.3142 -7.05707
LeftHand  -0.244104 0.0205437 5.32207
RightShoulder  6.67824 10.107 42.7444
RightArm  -4.12599 -13.5896 26.9026
RightForeArm  4.49917 6.31414 7.8246
RightHand  -0.965556 1.35211 -16.7007
LeftUpLeg  16.6771 3.13304 -3.26432
LeftLeg  15.3194 -5.81315 -1.65654
LeftFoot  -21.0504 1.14367 11.946
LeftToes  -2.54691e-011 4.12133e-011 -4.68171e-012
94
root  -17.5946 38.435 -19.5198 2.57542 -42.9191 -8.18709
RightUpLeg  -23.0618 -7.56441 2.60852
RightLeg  10.8575 -3.47132 2.51275
RightFoot  5.38085 -0.521641 3.79165
RightToes  -1.74624e-010 0 -3.6325e-017
Spine  4.25193 -1.31539 7.55322
Spine1  11.0935 -1.83572 2.02964
HEad  -12.1676 3.09072 -3.84829
LeftShoulder1  9.38336 -13.0015 -49.6319
LeftArm  -0.26205 1.29818 -29.7894
LeftForeArm  31.9549 -36.2391 -6.30323
LeftHand  -0.244104 0.0205437 5.32207
RightShoulder  6.6979 10.0471 43.079
RightArm  -5.84491 -10.928 27.0782
RightForeArm  3.13295 6.29299 7.53292
RightHand  -0.97116 1.43346 -16.603
LeftUpLeg  18.0738 1.97006 -1.99016
LeftLeg  18.2359 -5.39139 -1.61671
LeftFoot  -20.7312 0.886096 9.29075
LeftToes  -2.54691e-011 4.12133e-011 -4.68171e-012
95
root  -19.0554 38.3705 -18.3492 3.45761 -42.6265 -9.82628
RightUpLeg  -24.0168 -9.92173 6.10439
RightLeg  17.2549 0.589294 0.821987
RightFoot  6.47539 -0.114386 0.969324
RightToes  -1.74624e-010 0 -3.6325e-017
Spine  3.6423 -1.45776 11.171
Spine1  11.0886 -1.33122 0.228049
HEad  -10.8984 2.82164 -4.34406
LeftShoulder1  9.42091 -12.9539 -49.9725
LeftArm  -0.392779 3.44753 -29.3672
LeftForeArm  30.0946 -32.491 -5.45441
LeftHand  -0.244104 0.0205437 5.32207
RightShoulder  6.74135 10.0452 43.3811
RightArm  -6.8407 -8.62748 27.4218
RightForeArm  2.3386 6.78198 7.44308
RightHand  -1.00802 1.77473 -16.4304
LeftUpLeg  18.0869 2.42806 0.587392
LeftLeg  23.7237 -6.32087 -2.73818
LeftFoot  -17.1404 0.38794 5.33366
LeftToes  -2.54691e-011 4.12133e-011 -4.68171e-012
96
root  -20.4937 38.3965 -17.233 4.1051 -42.4929 -11.0245
RightUpLeg  -23.9812 -7.99815 7.33474
RightLeg  22.7231 -0.468332 -0.55711
RightFoot  3.87738 0.153038 -0.960538
RightToes  -1.74624e-010 0 -3.6325e-017
Spine  3.32482 -1.35147 13.9002
Spine1  10.8435 -0.655945 -1.10611
HEad  -9.59941 2.51404 -4.63867
LeftShoulder1  9.39901 -12.8829 -50.0712
LeftArm  -1.04965 6.40921 -29.412
LeftForeArm  27.9669 -28.8232 -4.70828
LeftHand  -0.244104 0.0205437 5.32207
RightShoulder  6.79384 10.1572 43.3602
RightArm  -7.14258 -6.20285 28.2177
RightForeArm  2.20035 7.50737 7.49407
RightHand  -0.980927 1.81124 -15.9138
LeftUpLeg  15.0274 3.13677 3.33365
LeftLeg  33.1855 -7.88088 -5.19317
LeftFoot  -7.58098 0.0947231 -0.136619
LeftToes  -2.54691e-011 4.12133e-011 -4.68171e-012
97
root  -21.7907 38.4214 -16.2542 4.58279 -41.1071 -11.6622
RightUpLeg  -23.1242 -6.53186 7.74115
RightLeg  26.559 -2.80641 -1.75079
RightFoot  -0.371913 0.181514 -1.88968
RightToes  -1.74624e-010 0 -3.6325e-017
Spine  3.13782 -1.57448 15.5661
Spine1  10.6527 -0.457989 -1.51534
HEad  -8.7933 1.81738 -4.54453
LeftShoulder1  9.36998 -12.838 -50.0537
LeftArm  -1.15143 9.27947 -29.5059
LeftForeArm  25.0823 -25.4555 -4.11336
LeftHand  -0.244104 0.0205437 5.32207
RightShoulder  6.73987 10.2031 42.8413
RightArm  -6.52197 -3.47912 29.5576
RightForeArm  1.96073 8.98135 7.59818
RightHand  -0.901634 1.43029 -15.4493
LeftUpLeg  8.46139 1.72834 5.18095
LeftLeg  45.0668 -7.36766 -7.39597
LeftFoot  5.18633 0.768312 -5.61919
LeftToes  -2.54691e-011 4.12133e-011 -4.68171e-012
98
root  -22.9523 38.5262 -15.319 4.74164 -38.8679 -11.9607
RightUpLeg  -21.3413 -7.88542 8.22857
RightLeg  28.3117 -3.49484 -2.28381
RightFoot  -4.03611 0.0961753 -1.91387
RightToes  -1.74624e-010 0 -3.6325e-017
Spine  3.08067 -1.8741 17.1069
Spine1  10.7111 -0.342569 -1.72166
HEad  -8.53374 0.318071 -4.14838
LeftShoulder1  9.42739 -12.8841 -50.2174
LeftArm  0.0293057 11.405 -29.227
LeftForeArm  22.2651 -22.2041 -3.85324
LeftHand  -0.244104 0.0205437 5.32207
RightShoulder  6.56634 10.0601 42.135
RightArm  -3.92793 -0.988105 30.7757
RightForeArm  -0.576977 12.1788 7.47225
RightHand  -0.915572 1.37935 -15.7827
LeftUpLeg  0.813189 -0.604509 6.28444
LeftLeg  55.5625 -4.77354 -6.90258
LeftFoot  12.3978 1.57811 -7.98635
LeftToes  -2.54691e-011 4.12133e-011 -4.68171e-012
99
root  -24.1483 38.9121 -14.2872 3.97726 -37.7035 -11.2419
RightUpLeg  -17.8418 -9.75656 7.71174
RightLeg  27.4633 -3.00087 -1.93385
RightFoot  -6.31598 0.0255102 -1.55769
RightToes  -1.74624e-010 0 -3.6325e-017
Spine  3.11532 -1.44264 17.7616
Spine1  10.7634 0.453699 -2.54035
HEad  -8.43547 -1.59947 -3.67275
LeftShoulder1  9.51053 -12.955 -50.4407
LeftArm  0.546536 13.1466 -28.6742
LeftForeArm  22.0799 -19.1569 -4.45679
LeftHand  -0.244104 0.0205437 5.32207
RightShoulder  6.42987 9.92086 41.6558
RightArm  0.801216 0.834466 31.1738
RightForeArm  -6.05622 16.9675 6.59847
RightHand  -1.0515 1.96136 -16.7014
LeftUpLeg  -5.66545 -1.07465 6.36536
LeftLeg  62.3586 -1.87166 -3.29542
LeftFoot  11.312 1.1796 -6.14019
LeftToes  -2.54691e-011 4.12133e-011 -4.68171e-012
100
root  -25.3809 39.4075 -13.2181 2.65242 -37.9143 -9.49367
RightUpLeg  -13.5558 -10.4692 6.06307
RightLeg  25.2544 -2.3731 -1.22204
RightFoot  -7.8896 -0.0123934 -1.3751
RightToes  -1.74624e-010 0 -3.6325e-017
Spine  3.21985 -0.453104 17.0942
Spine1  10.6223 1.73047 -3.67936
HEad  -8.16069 -2.9419 -3.35054
LeftShoulder1  9.46372 -12.9257 -50.2828
LeftArm  -0.0515776 15.3465 -28.2972
LeftForeArm  23.7359 -16.7803 -5.23331
LeftHand  -0.244104 0.0205437 5.32207
RightShoulder  6.39447 9.9481 41.3184
RightArm  4.29858 2.32171 30.9657
RightForeArm  -10.0416 21.6315 5.60381
RightHand  -1.15514 2.43566 -17.2448
LeftUpLeg  -10.9726 0.394175 5.33198
LeftLeg  64.9496 0.33069 1.38033
LeftFoot  6.39076 0.366626 -2.61486
LeftToes  -2.54691e-011 4.12133e-011 -4.68171e-012
101
root  -26.576 39.8007 -12.1637 1.42444 -38.3687 -7.43312
RightUpLeg  -9.54921 -10.1676 3.95925
RightLeg  22.9608 -2.41906 -0.365714
RightFoot  -9.39125 -0.0371045 -1.57263
RightToes  -1.74624e-010 0 -3.6325e-017
Spine  3.35327 0.40042 15.8362
Spine1  10.1219 2.75653 -4.63684
HEad  -7.74315 -3.31131 -3.34659
LeftShoulder1  9.2761 -12.8092 -49.6414
LeftArm  -1.10715 18.261 -28.179
LeftForeArm  25.3956 -15.1079 -5.72316
LeftHand  -0.244104 0.0205437 5.32207
RightShoulder  6.31568 9.95199 40.7537
RightArm  4.40984 3.95728 30.9158
RightForeArm  -9.26002 25.1461 5.79115
RightHand  -1.11447 2.19203 -17.1603
LeftUpLeg  -15.8243 1.78922 3.76888
LeftLeg  63.9085 1.54896 4.08742
LeftFoot  2.6445 0.0840963 -0.863943
LeftToes  -2.54691e-011 4.12133e-011 -4.68171e-012
